<?xml version="1.0" encoding="UTF-8"?><svg id="b" xmlns="http://www.w3.org/2000/svg" viewBox="0 0 192 192"><defs><style>.e{fill:#ff6300;}</style></defs><g id="c"><g id="d"><path class="e" d="M96,0c78.825,0,96,17.175,96,96s-17.175,96-96,96S0,174.825,0,96,17.175,0,96,0Z"/><path d="M7.3828125,117.140625c-.28125-.296875-.421875-.6328125-.421875-1.0078125,0-.5.234375-.90625.703125-1.21875.84375-.5,1.453125-1.0625,1.828125-1.6875s.5625-1.484375.5625-2.578125h-.140625c-.71923828,0-1.34375-.26464844-1.875-.796875-.53173828-.53125-.796875-1.15527344-.796875-1.875v-.28125c0-.71875.26513672-1.34277344.796875-1.875.53125-.53125,1.15576172-.796875,1.875-.796875h.46875c.68701172,0,1.27294922.2578125,1.7578125.7734375.484375.515625.7890625,1.1484375.9140625,1.8984375.0625.3125.09375.78125.09375,1.40625,0,.59375-.03125,1.04785156-.09375,1.359375-.25048828,1.6875-.65625,3.078125-1.21875,4.171875s-1.4375,2-2.625,2.71875c-.25048828.15625-.53173828.234375-.84375.234375-.375,0-.703125-.1484375-.984375-.4453125Z"/><path d="M19.5703125,117.140625c-.28125-.296875-.421875-.6328125-.421875-1.0078125,0-.5.234375-.90625.703125-1.21875.84375-.5,1.453125-1.0625,1.828125-1.6875s.5625-1.484375.5625-2.578125h-.140625c-.71923828,0-1.34375-.26464844-1.875-.796875-.53173828-.53125-.796875-1.15527344-.796875-1.875v-.28125c0-.71875.26513672-1.34277344.796875-1.875.53125-.53125,1.15576172-.796875,1.875-.796875h.46875c.68701172,0,1.27294922.2578125,1.7578125.7734375.484375.515625.7890625,1.1484375.9140625,1.8984375.0625.3125.09375.78125.09375,1.40625,0,.59375-.03125,1.04785156-.09375,1.359375-.25048828,1.6875-.65625,3.078125-1.21875,4.171875s-1.4375,2-2.625,2.71875c-.25048828.15625-.53173828.234375-.84375.234375-.375,0-.703125-.1484375-.984375-.4453125Z"/><path d="M48.5390625,97.1484375c-.875-1.03125-1.3125-2.203125-1.3125-3.515625,0-1.34326172.515625-2.53125,1.546875-3.5625.96826172-1,2.203125-1.5,3.703125-1.5,1.375,0,2.546875.5,3.515625,1.5,1,1.00048828,1.5,2.203125,1.5,3.609375,0,1.56298828-.5625,2.84375-1.6875,3.84375-1.03125.875-2.17236328,1.3125-3.421875,1.3125-1.46923828,0-2.75-.5625-3.84375-1.6875Z"/><path d="M82.21875,107.390625c-1.359375-2.296875-2.0390625-5.0078125-2.0390625-8.1328125,0-2.28076172.25-4.3046875.75-6.0703125.49951172-1.76513672,1.1875-3.47607422,2.0625-5.1328125.59326172-1.15576172,1.421875-1.734375,2.484375-1.734375.65625,0,1.15576172.1953125,1.5.5859375.34375.39111328.515625.88330078.515625,1.4765625,0,.5625-.20361328,1.23486328-.609375,2.015625-.75,1.56298828-1.32861328,3.09375-1.734375,4.59375-.40625,1.5-.609375,3.09375-.609375,4.78125,0,2,.38232422,3.6796875,1.1484375,5.0390625.765625,1.359375,1.8515625,2.0390625,3.2578125,2.0390625,1.5,0,2.67919922-.66308594,3.5390625-1.9921875.859375-1.328125,1.2890625-3.2265625,1.2890625-5.6953125v-6.9375c0-.625.203125-1.140625.609375-1.546875.40576172-.40576172.92138672-.609375,1.546875-.609375.625,0,1.140625.20361328,1.546875.609375.40625.40625.609375.921875.609375,1.546875v6.9375c0,2.46875.4453125,4.3671875,1.3359375,5.6953125.890625,1.32910156,2.1015625,1.9921875,3.6328125,1.9921875,1.375,0,2.4453125-.671875,3.2109375-2.015625.765625-1.34277344,1.1484375-3.03027344,1.1484375-5.0625,0-1.75-.203125-3.3671875-.609375-4.8515625-.40625-1.48388672-.984375-2.9921875-1.734375-4.5234375-.40625-.78076172-.609375-1.453125-.609375-2.015625,0-.59326172.171875-1.08544922.515625-1.4765625.34375-.390625.84375-.5859375,1.5-.5859375,1.0625,0,1.890625.57861328,2.484375,1.734375.875,1.65673828,1.5625,3.36767578,2.0625,5.1328125.5,1.765625.75,3.78955078.75,6.0703125,0,3.125-.6796875,5.8359375-2.0390625,8.1328125s-3.5703125,3.4453125-6.6328125,3.4453125c-3.53125,0-5.90625-1.75-7.125-5.25-1.28173828,3.5-3.65625,5.25-7.125,5.25-3.06298828,0-5.2734375-1.1484375-6.6328125-3.4453125Z"/><path d="M135.6796875,97.1484375c-.875-1.03125-1.3125-2.203125-1.3125-3.515625,0-1.34326172.515625-2.53125,1.546875-3.5625.96875-1,2.203125-1.5,3.703125-1.5,1.375,0,2.546875.5,3.515625,1.5,1,1.00048828,1.5,2.203125,1.5,3.609375,0,1.56298828-.5625,2.84375-1.6875,3.84375-1.03125.875-2.171875,1.3125-3.421875,1.3125-1.46875,0-2.75-.5625-3.84375-1.6875Z"/><path d="M166.8984375,117.140625c-.28125-.296875-.421875-.6328125-.421875-1.0078125,0-.5.234375-.90625.703125-1.21875.84375-.5,1.453125-1.0625,1.828125-1.6875s.5625-1.484375.5625-2.578125h-.140625c-.71875,0-1.34375-.26464844-1.875-.796875-.53125-.53125-.796875-1.15527344-.796875-1.875v-.28125c0-.71875.265625-1.34277344.796875-1.875.53125-.53125,1.15625-.796875,1.875-.796875h.46875c.6875,0,1.2734375.2578125,1.7578125.7734375s.7890625,1.1484375.9140625,1.8984375c.0625.3125.09375.78125.09375,1.40625,0,.59375-.03125,1.04785156-.09375,1.359375-.25,1.6875-.65625,3.078125-1.21875,4.171875s-1.4375,2-2.625,2.71875c-.25.15625-.53125.234375-.84375.234375-.375,0-.703125-.1484375-.984375-.4453125Z"/><path d="M179.0859375,117.140625c-.28125-.296875-.421875-.6328125-.421875-1.0078125,0-.5.234375-.90625.703125-1.21875.84375-.5,1.453125-1.0625,1.828125-1.6875s.5625-1.484375.5625-2.578125h-.140625c-.71875,0-1.34375-.26464844-1.875-.796875-.53125-.53125-.796875-1.15527344-.796875-1.875v-.28125c0-.71875.265625-1.34277344.796875-1.875.53125-.53125,1.15625-.796875,1.875-.796875h.46875c.6875,0,1.2734375.2578125,1.7578125.7734375s.7890625,1.1484375.9140625,1.8984375c.0625.3125.09375.78125.09375,1.40625,0,.59375-.03125,1.04785156-.09375,1.359375-.25,1.6875-.65625,3.078125-1.21875,4.171875s-1.4375,2-2.625,2.71875c-.25.15625-.53125.234375-.84375.234375-.375,0-.703125-.1484375-.984375-.4453125Z"/></g></g></svg>